<!DOCTYPE svg PUBLIC "-//W3C//DTD SVG 1.1//EN" "http://www.w3.org/Graphics/SVG/1.1/DTD/svg11.dtd">
<!-- Uploaded to: SVG Repo, www.svgrepo.com, Transformed by: SVG Repo Mixer Tools -->
<svg width="800px" height="800px" viewBox="-6.4 -6.4 76.80 76.80" xmlns="http://www.w3.org/2000/svg" fill="#000000">
<g id="SVGRepo_bgCarrier" stroke-width="0">
<rect x="-6.4" y="-6.4" width="76.80" height="76.80" rx="38.4" fill="#c4d4d9" strokewidth="0"/>
</g>
<g id="SVGRepo_tracerCarrier" stroke-linecap="round" stroke-linejoin="round" stroke="#CCCCCC" stroke-width="0.384"/>
<g id="SVGRepo_iconCarrier"> <g id="a"/> <g id="b"/> <g id="c"/> <g id="d"/> <g id="e"/> <g id="f"/> <g id="g"/> <g id="h"/> <g id="i"/> <g id="j"/> <g id="k"/> <g id="l"> <path d="M41.63,24.23v23.26h10.3c1.28,0,2.32-1.04,2.32-2.32v-13.06l-12.62-7.88Z" fill="#8fd7f8" fill-rule="evenodd"/> <path d="M25.54,14.2l-13.42,8.93-2.38,8.67v13.38c0,1.28,1.04,2.32,2.32,2.32h3.69l3.54-4.29,3.54,4.29h18.81V24.23L25.54,14.2Z" fill="#8fd7f8" fill-rule="evenodd"/> <path d="M25.09,8.75l10.52,14.58,12.12,8.79h7.98c.84,0,1.68-.33,2.32-.97,1.28-1.28,1.28-3.37,0-4.65L41.25,9.71c-.64-.64-1.48-.96-2.32-.96h-13.84Z" fill="#8996a8" fill-rule="evenodd"/> <path d="M40.29,22.57l-12.86-12.86c-1.28-1.28-3.37-1.28-4.65,0L5.96,26.52c-1.28,1.29-1.28,3.37,0,4.65,1.28,1.28,3.37,1.28,4.65,0l14.49-14.49,8.33,8.34,6.85-2.45Z" fill="#9fa9b6" fill-rule="evenodd"/> <path d="M25.35,28.13c-.83,0-1.49,.67-1.49,1.49v3.85c0,.83,.67,1.49,1.49,1.49h4.29l1.9-3.34-.73-3.49h-5.46Z" fill="#f0f3f5" fill-rule="evenodd"/> <path d="M42.78,40.98l-2.92-.73-2.29,.64-1.17,6.49,.77,6.64,1.47-.69c.97-.45,2.09-.45,3.06,0l1.47,.69,.91-6.67-1.3-6.35Z" fill="#f5e680" fill-rule="evenodd"/> <path d="M37.18,54l.39-13.12-3.66,1.02-.73,12.28c-.05,.79,.82,1.31,1.53,.98l2.46-1.15Z" fill="#8fd7f8" fill-rule="evenodd"/> <path d="M42.78,40.98l.39,13.02,2.46,1.15c.71,.33,1.58-.19,1.53-.98l-.73-12.28-3.65-.92Z" fill="#8fd7f8" fill-rule="evenodd"/> <path d="M19.29,36.69c-1.96,0-3.54,1.58-3.54,3.54v7.27h7.07v-7.27c0-1.96-1.58-3.54-3.54-3.54Z" fill="#f0f3f5" fill-rule="evenodd"/> <path d="M55.71,32.11c.84,0,1.68-.32,2.32-.96,1.28-1.28,1.28-3.37,0-4.65L41.25,9.71c-.64-.64-1.48-.96-2.32-.96h-3.64c.84,0,1.68,.32,2.32,.96l16.78,16.78c1.28,1.28,1.28,3.37,0,4.65-.64,.64-1.48,.96-2.32,.96h3.64Z" fill="#7a8594" fill-rule="evenodd"/> <path d="M22.29,16.68L7.8,31.17c-.27,.27-.58,.48-.9,.64,1.25,.59,2.74,.34,3.72-.64l14.49-14.49h-2.81Zm2.3-7.9c-.3,.05-.6,.15-.88,.29,.33,.16,.63,.37,.9,.64,4.53,4.53,9.07,9.07,13.6,13.6l2.07-.74-12.86-12.86c-.74-.74-1.8-1.09-2.84-.92Z" fill="#8996a8" fill-rule="evenodd"/> <path d="M50.87,33.25c0,5.9-4.79,10.69-10.69,10.69s-10.69-4.79-10.69-10.69,4.79-10.69,10.69-10.69,10.69,4.79,10.69,10.69Z" fill="#ebb680" fill-rule="evenodd"/> <circle cx="40.18" cy="33.25" fill="#f5e680" r="6.25"/> <path d="M40.18,22.56c-.32,0-.64,.03-.96,.07,5.41,.61,9.5,5.18,9.5,10.62-.01,5.48-4.17,10.06-9.62,10.61,.36,.04,.72,.07,1.08,.08,5.9,0,10.69-4.79,10.69-10.69s-4.79-10.69-10.69-10.69Z" fill="#e6a361" fill-rule="evenodd"/> <path d="M40.18,27c-.27,0-.53,.02-.8,.06,3.11,.4,5.45,3.05,5.45,6.19,0,3.14-2.34,5.79-5.45,6.19,.27,.04,.53,.05,.8,.06,3.45,0,6.25-2.8,6.25-6.25s-2.8-6.25-6.25-6.25Z" fill="#f2d865" fill-rule="evenodd"/> <path d="M41.96,9c-.81-.81-1.89-1.26-3.03-1.26h-13.84c-1.02,0-2.19,.43-3.02,1.26L5.26,25.81c-1.67,1.67-1.67,4.39,0,6.07,.84,.84,1.93,1.25,3.03,1.25,.15,0,.3-.07,.46-.09v12.13c0,1.83,1.49,3.32,3.32,3.32h20.46l-.33,5.62c-.04,.71,.29,1.37,.88,1.77,.61,.42,1.41,.48,2.07,.17l3.92-1.84c.7-.33,1.51-.33,2.21,0l3.92,1.83c.28,.13,.58,.2,.88,.2,.42,0,.83-.12,1.19-.36,.59-.4,.92-1.07,.88-1.77l-.33-5.62h4.11c1.83,0,3.32-1.49,3.32-3.32v-12.06h.45c1.15,0,2.22-.45,3.03-1.26s1.26-1.89,1.26-3.03-.45-2.22-1.26-3.03L41.96,9ZM6.67,30.46c-.89-.89-.89-2.34,0-3.24L23.49,10.42c.86-.86,2.38-.86,3.24,0l11.36,11.36c-1.68,.31-3.23,.96-4.57,1.9l-7.7-7.7c-.39-.39-1.02-.39-1.41,0l-14.49,14.49c-.89,.89-2.34,.89-3.24,0Zm43.2,2.79c0,5.34-4.35,9.69-9.69,9.69s-9.69-4.35-9.69-9.69,4.35-9.69,9.69-9.69,9.69,4.35,9.69,9.69Zm-21.31,.71h-3.21c-.27,0-.49-.22-.49-.49v-3.85c0-.28,.22-.49,.49-.49h3.93c-.49,1.29-.79,2.67-.79,4.12,0,.24,.06,.47,.07,.71Zm-6.73,12.53h-5.08v-6.26c0-1.4,1.14-2.54,2.54-2.54s2.54,1.14,2.54,2.54v6.26Zm2,0v-6.26c0-2.5-2.04-4.54-4.54-4.54s-4.54,2.04-4.54,4.54v6.26h-2.68c-.73,0-1.32-.59-1.32-1.32v-12.91c.19-.14,.41-.21,.58-.38l13.78-13.78,6.86,6.86c-.65,.65-1.21,1.39-1.69,2.18h-4.92c-1.37,0-2.49,1.12-2.49,2.49v3.85c0,1.37,1.12,2.49,2.49,2.49h3.49c.61,2.55,2.07,4.76,4.05,6.35l-.25,4.18h-8.82Zm10.47,7.75c-.05,.02-.1,0-.11,0h0l.63-10.66c.53,.28,1.08,.51,1.65,.7l-.27,9.08-1.9,.89Zm3.93-1.84l.23-7.64c.57,.08,1.13,.17,1.72,.17s1.15-.09,1.72-.17l.23,7.64c-1.24-.58-2.66-.58-3.9,0Zm7.83,1.84l-1.9-.89-.27-9.08c.57-.19,1.12-.43,1.65-.7l.23,3.91h0l.4,6.73s-.06,.05-.11,.02Zm7.2-9.07c0,.73-.59,1.32-1.32,1.32h-4.22l-.25-4.17c2.66-2.14,4.41-5.39,4.41-9.07,0-.05-.01-.09-.01-.14h1.4v12.06Zm4.07-14.74c-.43,.43-1.01,.67-1.62,.67h-4.06c-.97-5.23-5.45-9.21-10.9-9.49l-11.87-11.87h10.05c.61,0,1.19,.24,1.62,.67l16.78,16.78c.43,.43,.67,1.01,.67,1.62s-.24,1.19-.67,1.62Z"/> <path d="M40.18,26c-4,0-7.25,3.25-7.25,7.25s3.25,7.25,7.25,7.25,7.25-3.25,7.25-7.25-3.25-7.25-7.25-7.25Zm0,12.5c-2.89,0-5.25-2.36-5.25-5.25s2.36-5.25,5.25-5.25,5.25,2.36,5.25,5.25-2.36,5.25-5.25,5.25Z"/> </g> <g id="m"/> <g id="n"/> <g id="o"/> <g id="p"/> <g id="q"/> <g id="r"/> <g id="s"/> <g id="t"/> <g id="u"/> <g id="v"/> <g id="w"/> <g id="x"/> <g id="y"/> <g id="a`"/> <g id="aa"/> <g id="ab"/> <g id="ac"/> <g id="ad"/> <g id="ae"/> <g id="af"/> <g id="ag"/> <g id="ah"/> <g id="ai"/> <g id="aj"/> <g id="ak"/> <g id="al"/> <g id="am"/> <g id="an"/> <g id="ao"/> <g id="ap"/> <g id="aq"/> <g id="ar"/> <g id="as"/> <g id="at"/> <g id="au"/> <g id="av"/> <g id="aw"/> <g id="ax"/> </g>
</svg>